<mxfile host="app.diagrams.net" modified="2023-07-04T02:58:15.988Z" agent="Mozilla/5.0 (Windows NT 10.0; Win64; x64) AppleWebKit/537.36 (KHTML, like Gecko) Chrome/114.0.0.0 Safari/537.36 Edg/114.0.1823.58" etag="cWrrLU4JBs_4z4htVK_O" version="21.5.2" type="github">
  <diagram name="第 1 页" id="ZBkBphQVGWZDdPcVAHv7">
    <mxGraphModel dx="794" dy="477" grid="0" gridSize="10" guides="1" tooltips="1" connect="1" arrows="1" fold="1" page="1" pageScale="1" pageWidth="827" pageHeight="1169" math="0" shadow="0">
      <root>
        <mxCell id="0" />
        <mxCell id="1" parent="0" />
        <mxCell id="Ymi8FCE-NdVyGK-bQFH1-15" style="edgeStyle=orthogonalEdgeStyle;rounded=0;orthogonalLoop=1;jettySize=auto;html=1;exitX=0.5;exitY=0.5;exitDx=0;exitDy=15;exitPerimeter=0;entryX=0.408;entryY=0.059;entryDx=0;entryDy=0;entryPerimeter=0;strokeWidth=1;jumpSize=6;" edge="1" parent="1" source="Ymi8FCE-NdVyGK-bQFH1-1" target="Ymi8FCE-NdVyGK-bQFH1-2">
          <mxGeometry relative="1" as="geometry" />
        </mxCell>
        <mxCell id="Ymi8FCE-NdVyGK-bQFH1-16" style="edgeStyle=orthogonalEdgeStyle;rounded=0;orthogonalLoop=1;jettySize=auto;html=1;exitX=0.5;exitY=0.5;exitDx=0;exitDy=15;exitPerimeter=0;" edge="1" parent="1" source="Ymi8FCE-NdVyGK-bQFH1-1" target="Ymi8FCE-NdVyGK-bQFH1-4">
          <mxGeometry relative="1" as="geometry" />
        </mxCell>
        <mxCell id="Ymi8FCE-NdVyGK-bQFH1-17" style="edgeStyle=orthogonalEdgeStyle;rounded=0;orthogonalLoop=1;jettySize=auto;html=1;exitX=0.5;exitY=0.5;exitDx=0;exitDy=15;exitPerimeter=0;entryX=0.5;entryY=0;entryDx=0;entryDy=0;" edge="1" parent="1" source="Ymi8FCE-NdVyGK-bQFH1-1" target="Ymi8FCE-NdVyGK-bQFH1-5">
          <mxGeometry relative="1" as="geometry" />
        </mxCell>
        <mxCell id="Ymi8FCE-NdVyGK-bQFH1-1" value="进入学员信息界面" style="html=1;dashed=0;whiteSpace=wrap;shape=mxgraph.dfd.start;fillColor=#ffcc99;strokeColor=#36393d;" vertex="1" parent="1">
          <mxGeometry x="280" y="80" width="120" height="30" as="geometry" />
        </mxCell>
        <mxCell id="Ymi8FCE-NdVyGK-bQFH1-18" style="edgeStyle=orthogonalEdgeStyle;rounded=0;orthogonalLoop=1;jettySize=auto;html=1;exitX=0.5;exitY=1;exitDx=0;exitDy=0;" edge="1" parent="1" source="Ymi8FCE-NdVyGK-bQFH1-2" target="Ymi8FCE-NdVyGK-bQFH1-6">
          <mxGeometry relative="1" as="geometry" />
        </mxCell>
        <mxCell id="Ymi8FCE-NdVyGK-bQFH1-2" value="编辑学员" style="html=1;dashed=0;whiteSpace=wrap;fillColor=#1ba1e2;fontColor=#ffffff;strokeColor=#006EAF;" vertex="1" parent="1">
          <mxGeometry x="180" y="150" width="80" height="40" as="geometry" />
        </mxCell>
        <mxCell id="Ymi8FCE-NdVyGK-bQFH1-3" value="退出学员信息界面" style="html=1;dashed=0;whiteSpace=wrap;shape=mxgraph.dfd.start;fillColor=#ffcc99;strokeColor=#36393d;" vertex="1" parent="1">
          <mxGeometry x="280" y="456" width="120" height="30" as="geometry" />
        </mxCell>
        <mxCell id="Ymi8FCE-NdVyGK-bQFH1-20" style="edgeStyle=orthogonalEdgeStyle;rounded=0;orthogonalLoop=1;jettySize=auto;html=1;exitX=0.5;exitY=1;exitDx=0;exitDy=0;" edge="1" parent="1" source="Ymi8FCE-NdVyGK-bQFH1-4" target="Ymi8FCE-NdVyGK-bQFH1-7">
          <mxGeometry relative="1" as="geometry" />
        </mxCell>
        <mxCell id="Ymi8FCE-NdVyGK-bQFH1-4" value="删除学员" style="html=1;dashed=0;whiteSpace=wrap;fillColor=#1ba1e2;fontColor=#ffffff;strokeColor=#006EAF;" vertex="1" parent="1">
          <mxGeometry x="300" y="150" width="80" height="40" as="geometry" />
        </mxCell>
        <mxCell id="Ymi8FCE-NdVyGK-bQFH1-21" style="edgeStyle=orthogonalEdgeStyle;rounded=0;orthogonalLoop=1;jettySize=auto;html=1;exitX=0.5;exitY=1;exitDx=0;exitDy=0;" edge="1" parent="1" source="Ymi8FCE-NdVyGK-bQFH1-5" target="Ymi8FCE-NdVyGK-bQFH1-8">
          <mxGeometry relative="1" as="geometry" />
        </mxCell>
        <mxCell id="Ymi8FCE-NdVyGK-bQFH1-5" value="模糊查询" style="html=1;dashed=0;whiteSpace=wrap;fillColor=#1ba1e2;fontColor=#ffffff;strokeColor=#006EAF;" vertex="1" parent="1">
          <mxGeometry x="420" y="150" width="80" height="40" as="geometry" />
        </mxCell>
        <mxCell id="Ymi8FCE-NdVyGK-bQFH1-19" style="edgeStyle=orthogonalEdgeStyle;rounded=0;orthogonalLoop=1;jettySize=auto;html=1;exitX=0.5;exitY=1;exitDx=0;exitDy=0;entryX=0.5;entryY=0;entryDx=0;entryDy=0;" edge="1" parent="1" source="Ymi8FCE-NdVyGK-bQFH1-6" target="Ymi8FCE-NdVyGK-bQFH1-9">
          <mxGeometry relative="1" as="geometry" />
        </mxCell>
        <mxCell id="Ymi8FCE-NdVyGK-bQFH1-6" value="学员基本信息" style="shape=parallelogram;perimeter=parallelogramPerimeter;whiteSpace=wrap;html=1;dashed=0;fillColor=#1ba1e2;fontColor=#ffffff;strokeColor=#006EAF;" vertex="1" parent="1">
          <mxGeometry x="175" y="230" width="90" height="40" as="geometry" />
        </mxCell>
        <mxCell id="Ymi8FCE-NdVyGK-bQFH1-23" style="edgeStyle=orthogonalEdgeStyle;rounded=0;orthogonalLoop=1;jettySize=auto;html=1;exitX=0.5;exitY=1;exitDx=0;exitDy=0;entryX=0.5;entryY=0;entryDx=0;entryDy=0;" edge="1" parent="1" source="Ymi8FCE-NdVyGK-bQFH1-7" target="Ymi8FCE-NdVyGK-bQFH1-10">
          <mxGeometry relative="1" as="geometry" />
        </mxCell>
        <mxCell id="Ymi8FCE-NdVyGK-bQFH1-7" value="学员编号" style="shape=parallelogram;perimeter=parallelogramPerimeter;whiteSpace=wrap;html=1;dashed=0;fillColor=#1ba1e2;fontColor=#ffffff;strokeColor=#006EAF;" vertex="1" parent="1">
          <mxGeometry x="295" y="230" width="90" height="40" as="geometry" />
        </mxCell>
        <mxCell id="Ymi8FCE-NdVyGK-bQFH1-22" style="edgeStyle=orthogonalEdgeStyle;rounded=0;orthogonalLoop=1;jettySize=auto;html=1;exitX=0.5;exitY=1;exitDx=0;exitDy=0;entryX=0.5;entryY=0;entryDx=0;entryDy=0;" edge="1" parent="1" source="Ymi8FCE-NdVyGK-bQFH1-8" target="Ymi8FCE-NdVyGK-bQFH1-11">
          <mxGeometry relative="1" as="geometry" />
        </mxCell>
        <mxCell id="Ymi8FCE-NdVyGK-bQFH1-8" value="学员基本信息" style="shape=parallelogram;perimeter=parallelogramPerimeter;whiteSpace=wrap;html=1;dashed=0;fillColor=#1ba1e2;fontColor=#ffffff;strokeColor=#006EAF;" vertex="1" parent="1">
          <mxGeometry x="415" y="230" width="90" height="40" as="geometry" />
        </mxCell>
        <mxCell id="Ymi8FCE-NdVyGK-bQFH1-24" style="edgeStyle=orthogonalEdgeStyle;rounded=0;orthogonalLoop=1;jettySize=auto;html=1;exitX=1;exitY=0.5;exitDx=0;exitDy=0;entryX=0.5;entryY=0;entryDx=0;entryDy=0;" edge="1" parent="1" source="Ymi8FCE-NdVyGK-bQFH1-9" target="Ymi8FCE-NdVyGK-bQFH1-12">
          <mxGeometry relative="1" as="geometry" />
        </mxCell>
        <mxCell id="Ymi8FCE-NdVyGK-bQFH1-26" style="edgeStyle=orthogonalEdgeStyle;rounded=0;orthogonalLoop=1;jettySize=auto;html=1;exitX=0.5;exitY=1;exitDx=0;exitDy=0;entryX=0;entryY=0.5;entryDx=0;entryDy=0;" edge="1" parent="1" source="Ymi8FCE-NdVyGK-bQFH1-9" target="Ymi8FCE-NdVyGK-bQFH1-13">
          <mxGeometry relative="1" as="geometry" />
        </mxCell>
        <mxCell id="Ymi8FCE-NdVyGK-bQFH1-9" value="更新成功" style="shape=rhombus;html=1;dashed=0;whiteSpace=wrap;perimeter=rhombusPerimeter;fillColor=#dae8fc;strokeColor=#6c8ebf;" vertex="1" parent="1">
          <mxGeometry x="177.5" y="310" width="85" height="40" as="geometry" />
        </mxCell>
        <mxCell id="Ymi8FCE-NdVyGK-bQFH1-25" style="edgeStyle=orthogonalEdgeStyle;rounded=0;orthogonalLoop=1;jettySize=auto;html=1;exitX=0;exitY=0.5;exitDx=0;exitDy=0;entryX=0.6;entryY=-0.018;entryDx=0;entryDy=0;entryPerimeter=0;" edge="1" parent="1" source="Ymi8FCE-NdVyGK-bQFH1-10" target="Ymi8FCE-NdVyGK-bQFH1-12">
          <mxGeometry relative="1" as="geometry" />
        </mxCell>
        <mxCell id="Ymi8FCE-NdVyGK-bQFH1-27" style="edgeStyle=orthogonalEdgeStyle;rounded=0;orthogonalLoop=1;jettySize=auto;html=1;exitX=0.5;exitY=1;exitDx=0;exitDy=0;entryX=0.5;entryY=0;entryDx=0;entryDy=0;" edge="1" parent="1" source="Ymi8FCE-NdVyGK-bQFH1-10" target="Ymi8FCE-NdVyGK-bQFH1-13">
          <mxGeometry relative="1" as="geometry" />
        </mxCell>
        <mxCell id="Ymi8FCE-NdVyGK-bQFH1-10" value="删除成功" style="shape=rhombus;html=1;dashed=0;whiteSpace=wrap;perimeter=rhombusPerimeter;fillColor=#dae8fc;strokeColor=#6c8ebf;" vertex="1" parent="1">
          <mxGeometry x="297.5" y="310" width="85" height="40" as="geometry" />
        </mxCell>
        <mxCell id="Ymi8FCE-NdVyGK-bQFH1-28" style="edgeStyle=orthogonalEdgeStyle;rounded=0;orthogonalLoop=1;jettySize=auto;html=1;exitX=0.5;exitY=1;exitDx=0;exitDy=0;entryX=1;entryY=0.5;entryDx=0;entryDy=0;" edge="1" parent="1" source="Ymi8FCE-NdVyGK-bQFH1-11" target="Ymi8FCE-NdVyGK-bQFH1-13">
          <mxGeometry relative="1" as="geometry" />
        </mxCell>
        <mxCell id="Ymi8FCE-NdVyGK-bQFH1-11" value="查找成功" style="shape=rhombus;html=1;dashed=0;whiteSpace=wrap;perimeter=rhombusPerimeter;fillColor=#dae8fc;strokeColor=#6c8ebf;" vertex="1" parent="1">
          <mxGeometry x="417.5" y="310" width="85" height="40" as="geometry" />
        </mxCell>
        <mxCell id="Ymi8FCE-NdVyGK-bQFH1-12" value="错误提示" style="shape=parallelogram;perimeter=parallelogramPerimeter;whiteSpace=wrap;html=1;dashed=0;fillColor=#f0a30a;fontColor=#000000;strokeColor=#BD7000;" vertex="1" parent="1">
          <mxGeometry x="240" y="350" width="80" height="30" as="geometry" />
        </mxCell>
        <mxCell id="Ymi8FCE-NdVyGK-bQFH1-29" style="edgeStyle=orthogonalEdgeStyle;rounded=0;orthogonalLoop=1;jettySize=auto;html=1;exitX=0.5;exitY=1;exitDx=0;exitDy=0;" edge="1" parent="1" source="Ymi8FCE-NdVyGK-bQFH1-13" target="Ymi8FCE-NdVyGK-bQFH1-3">
          <mxGeometry relative="1" as="geometry" />
        </mxCell>
        <mxCell id="Ymi8FCE-NdVyGK-bQFH1-13" value="更新学员列表" style="html=1;dashed=0;whiteSpace=wrap;fillColor=#1ba1e2;fontColor=#ffffff;strokeColor=#006EAF;" vertex="1" parent="1">
          <mxGeometry x="255" y="395" width="170" height="40" as="geometry" />
        </mxCell>
        <mxCell id="Ymi8FCE-NdVyGK-bQFH1-14" style="edgeStyle=orthogonalEdgeStyle;rounded=0;orthogonalLoop=1;jettySize=auto;html=1;exitX=0.5;exitY=0.5;exitDx=0;exitDy=15;exitPerimeter=0;" edge="1" parent="1" source="Ymi8FCE-NdVyGK-bQFH1-3" target="Ymi8FCE-NdVyGK-bQFH1-3">
          <mxGeometry relative="1" as="geometry" />
        </mxCell>
      </root>
    </mxGraphModel>
  </diagram>
</mxfile>
